<svg width="667" height="667" viewBox="0 0 667 667" fill="none" xmlns="http://www.w3.org/2000/svg">
<g clip-path="url(#clip0_1_3)">
<path d="M666.667 666.667H0V6.00815e-05H666.667V666.667Z" fill="FFF" fill-opacity="0.0"/>
<path d="M565.268 445.525C551.188 439.165 549.045 423.861 543.229 415.903C537.415 407.944 523.333 403.045 523.333 403.045C523.333 403.045 536.803 392.639 558.228 395.087C568.301 396.239 575.869 400.772 582.049 405.699C578.871 396.479 582.097 391.165 576.593 382.396C570.165 372.153 557.616 366.621 550.576 349.612C543.535 332.603 550.576 317.339 550.576 317.339C550.576 317.339 552.719 323.461 561.289 329.584C568.951 335.056 590.545 335.895 603.352 352.405C596.732 259.239 531.961 208.324 487.144 181.765C448.648 158.953 423.793 111.343 319.788 118.228C215.783 125.128 192.627 191.851 166.859 242.36C152.592 270.321 120.339 276.508 93.1364 295.747C113.271 290.479 126.039 300.195 141.207 303.259C159.385 306.932 162.243 294.115 178.567 294.197C194.892 294.28 201.015 299.995 201.015 299.995C201.015 299.995 184.689 297.545 179.384 311.421C174.077 325.297 167.548 330.509 151.223 328.312C134.897 326.113 130.171 327.3 121.515 335.075C112.859 342.848 92.8599 337.135 81.4328 339.991C74.662 341.683 65.4579 353.689 59.0797 363.195C64.2328 359.024 71.2875 354.416 80.7937 350.175C107.322 338.339 141.207 359.988 141.207 359.988C141.207 359.988 114.491 366.111 98.9823 376.721C83.4735 387.333 72.4536 377.131 61.8421 380.804C56.5271 382.643 52.2369 384.508 49.2771 385.911C49.2751 385.952 49.2708 385.992 49.2683 386.033C47.1401 419.029 59.6099 448.328 80.7937 473.44C132.661 534.92 236.767 571.347 306.845 575.703C380.139 580.245 508.771 553.02 569.852 471.883C575.257 464.705 580.127 457.099 584.388 449.063C578.279 449.028 571.249 448.225 565.268 445.525Z" fill="#9DA6DB"/>
<path d="M300.493 253.975C300.493 275.228 283.265 292.456 262.012 292.456C240.76 292.456 223.531 275.228 223.531 253.975C223.531 232.723 240.76 215.495 262.012 215.495C283.265 215.495 300.493 232.723 300.493 253.975Z" fill="#707AC5"/>
<path d="M541.143 215.495C541.143 223.211 534.888 229.465 527.172 229.465C519.457 229.465 513.201 223.211 513.201 215.495C513.201 207.779 519.457 201.524 527.172 201.524C534.888 201.524 541.143 207.779 541.143 215.495Z" fill="#707AC5"/>
<path d="M569.852 471.883C508.771 553.02 380.139 580.245 306.845 575.703C236.767 571.347 132.661 534.92 80.7937 473.44C100.549 451.541 151.059 407.189 244.265 394.719C369.569 377.948 456.905 477.44 551.596 472.184C557.968 471.825 564.052 471.74 569.852 471.883Z" fill="#707AC5"/>
<path d="M163.671 213.267C175.303 178.372 147.753 194.492 137.347 216.735C126.939 238.979 107.349 241.424 107.349 253.975C107.349 266.528 152.039 248.161 163.671 213.267Z" stroke="#707AC5" stroke-width="1.33333" stroke-miterlimit="10"/>
<path d="M482.623 169.483C482.623 169.483 450.176 141.945 437.015 133.069C423.852 124.193 429.668 112.255 459.819 126.029C489.969 139.804 502.825 166.401 498.845 171.928C494.865 177.453 482.623 169.483 482.623 169.483Z" stroke="#707AC5" stroke-width="1.33333" stroke-miterlimit="10"/>
<path d="M181.524 251.885C181.524 253.04 180.588 253.975 179.433 253.975C178.279 253.975 177.343 253.04 177.343 251.885C177.343 250.731 178.279 249.795 179.433 249.795C180.588 249.795 181.524 250.731 181.524 251.885Z" fill="#4D5EB4"/>
<path d="M199.073 255.836C199.073 256.991 198.137 257.927 196.983 257.927C195.828 257.927 194.892 256.991 194.892 255.836C194.892 254.681 195.828 253.745 196.983 253.745C198.137 253.745 199.073 254.681 199.073 255.836Z" fill="#4D5EB4"/>
<path d="M257.724 193.381C257.724 194.536 256.788 195.472 255.633 195.472C254.479 195.472 253.543 194.536 253.543 193.381C253.543 192.227 254.479 191.291 255.633 191.291C256.788 191.291 257.724 192.227 257.724 193.381Z" fill="#4D5EB4"/>
<path d="M531.355 378.753C531.355 379.909 530.417 380.844 529.263 380.844C528.108 380.844 527.172 379.909 527.172 378.753C527.172 377.599 528.108 376.663 529.263 376.663C530.417 376.663 531.355 377.599 531.355 378.753Z" fill="#4D5EB4"/>
<path d="M538.472 373.091C538.472 374.247 537.537 375.181 536.383 375.181C535.228 375.181 534.292 374.247 534.292 373.091C534.292 371.936 535.228 371 536.383 371C537.537 371 538.472 371.936 538.472 373.091Z" fill="#4D5EB4"/>
<path d="M194.892 245.101C194.892 246.96 193.385 248.468 191.525 248.468C189.665 248.468 188.159 246.96 188.159 245.101C188.159 243.241 189.665 241.733 191.525 241.733C193.385 241.733 194.892 243.241 194.892 245.101Z" fill="#4D5EB4"/>
<path d="M550.065 267.916C550.065 269.776 548.559 271.283 546.699 271.283C544.839 271.283 543.332 269.776 543.332 267.916C543.332 266.056 544.839 264.548 546.699 264.548C548.559 264.548 550.065 266.056 550.065 267.916Z" fill="#4D5EB4"/>
<path d="M188.159 369.163C188.159 371.573 186.205 373.527 183.796 373.527C181.387 373.527 179.433 371.573 179.433 369.163C179.433 366.753 181.387 364.801 183.796 364.801C186.205 364.801 188.159 366.753 188.159 369.163Z" stroke="white" stroke-width="1.33333" stroke-miterlimit="10"/>
<path d="M434.739 183.119C434.739 185.528 432.785 187.481 430.376 187.481C427.968 187.481 426.015 185.528 426.015 183.119C426.015 180.711 427.968 178.757 430.376 178.757C432.785 178.757 434.739 180.711 434.739 183.119Z" stroke="white" stroke-width="1.33333" stroke-miterlimit="10"/>
<path d="M230.239 169.161C230.239 176.843 224.012 183.071 216.329 183.071C208.647 183.071 202.42 176.843 202.42 169.161C202.42 161.479 208.647 155.251 216.329 155.251C224.012 155.251 230.239 161.479 230.239 169.161Z" stroke="white" stroke-width="1.33333" stroke-miterlimit="10"/>
<path d="M621.715 289.057C621.715 304.799 608.955 317.559 593.213 317.559C577.472 317.559 564.711 304.799 564.711 289.057C564.711 273.317 577.472 260.556 593.213 260.556C608.955 260.556 621.715 273.317 621.715 289.057Z" stroke="white" stroke-width="1.33333" stroke-miterlimit="10"/>
<path d="M87.2885 427.739C87.2885 443.479 74.5281 456.24 58.7869 456.24C43.0464 456.24 30.286 443.479 30.286 427.739C30.286 411.997 43.0464 399.237 58.7869 399.237C74.5281 399.237 87.2885 411.997 87.2885 427.739Z" stroke="white" stroke-width="1.33333" stroke-miterlimit="10"/>
<path d="M274.863 137.699C274.863 137.699 268.859 140.815 268.575 153.963C268.292 167.111 280.888 173.203 288.829 173.061L288.133 171.011C288.133 171.011 274.607 169.52 271.095 158.043C267.583 146.565 275.235 138.772 275.235 138.772L274.863 137.699Z" fill="#35181A"/>
<path d="M493.572 367.135C493.572 367.135 490.823 387.917 454.372 395.852C417.92 403.787 380.324 383.004 380.324 383.004L386.459 382.396C386.459 382.396 407.717 394.717 433.223 393.205C458.728 391.695 473.172 376.203 473.172 376.203L493.572 367.135Z" fill="#35181A"/>
<path d="M499.157 264.548C499.157 264.548 494.812 251.891 478.188 238.855C461.561 225.819 448.337 218.64 448.337 218.64C500.103 234.888 500.669 264.548 500.669 264.548H499.157ZM502.559 266.627C504.825 240.933 469.307 214.483 426.988 207.673C384.669 200.863 387.725 155.727 387.725 155.727L303.177 204.376C303.177 204.376 299.276 244.712 271.095 267.383C242.915 290.053 238.064 343.708 251.288 364.867C264.513 386.028 287.94 387.539 324.403 385.271C360.864 383.004 377.767 384.897 418.299 388.295C458.829 391.692 487.729 400.903 512.344 355.988C536.957 311.075 502.559 266.627 502.559 266.627Z" fill="#35181A"/>
<path d="M274.036 243.729C274.036 243.729 262.057 254.535 253.556 277.207C245.055 299.877 227.107 370.157 227.107 370.157L256.12 388.249L284.161 311.591L274.036 243.729Z" fill="#DD5C55"/>
<path d="M389.639 352.721C385.225 365.777 386.309 380.063 392.681 392.291L394.239 399.019V399.032L398.509 417.417C369.284 442.785 328.687 451.343 303.717 445.828C278.733 440.313 272.377 419.873 272.377 419.873L276.235 392.861L269.62 332.767C269.62 332.767 264.449 324.867 262.251 306.683C260.036 288.484 274.035 243.731 274.035 243.731L319.516 225.548L352.685 222.719L408.009 243.731L415.165 261.659C414.908 271.572 407.608 297.069 399.98 321.167C396.367 332.609 392.681 343.737 389.639 352.721Z" fill="#FBCDB7"/>
<path d="M352.999 225.675C347.803 235.141 329.249 247.025 321.756 244.427C314.264 241.828 320.336 228.464 320.336 228.464C320.405 226.567 320.475 224.816 320.527 223.205C320.873 212.517 320.804 208.004 320.804 208.004L352.999 186.697C352.247 190.585 351.873 195.029 351.744 199.499C351.353 212.5 352.999 225.675 352.999 225.675Z" fill="#DD5C55"/>
<path d="M352.999 186.697C352.247 190.585 351.873 195.029 351.744 199.499C348.053 205.033 341.904 213.332 335.512 217.879C328.912 222.583 323.507 223.292 320.527 223.205C320.873 212.517 320.804 208.004 320.804 208.004L352.999 186.697Z" fill="#C64645"/>
<path d="M285.813 175.377C285.813 175.377 286.927 201.733 305.488 213.612C324.048 225.491 350.032 200.62 354.488 186.885C358.943 173.151 357.457 143.453 357.457 143.453C357.457 143.453 332.957 127.12 314.396 127.12C295.836 127.12 285.813 136.4 285.813 136.4C285.813 136.4 285.813 161.643 285.813 175.377Z" fill="#DD5C55"/>
<path d="M306.968 127.639C306.968 127.639 306.416 137.328 324.233 148.651C342.052 159.972 351.713 162.292 351.713 162.292L355.487 183.107C355.487 183.107 352.896 189.639 352.169 192.013C351.377 194.605 351.688 202.847 351.688 202.847C351.688 202.847 366.739 200.615 371.935 186.697C371.935 186.697 387.34 175.192 387.897 154.404C388.453 133.616 377.689 127.12 377.689 127.12C377.689 127.12 374.917 102.248 347.441 97.98C319.965 93.7107 298.063 109.116 298.063 109.116C298.063 109.116 284.7 107.26 277.461 116.727C270.223 126.192 274.863 137.699 274.863 137.699C274.863 137.699 268.552 143.824 272.264 153.847C275.976 163.869 285.813 165.169 285.813 165.169C285.813 165.169 286.741 148.093 291.752 139.556C296.764 131.017 306.968 127.639 306.968 127.639Z" fill="#35181A"/>
<path d="M353.003 165.355C353.003 165.355 356.529 156.632 363.768 155.703C371.007 154.776 371.564 167.583 366.552 176.12C361.54 184.657 354.488 182.988 354.488 182.988L353.003 165.355Z" fill="#DD5C55"/>
<path d="M349.476 155.656C349.476 155.656 354.303 170.18 351.519 181.688C351.519 181.688 352.3 180.916 353.323 179.425C355.652 176.032 356.623 163.128 357.665 158.704L349.476 155.656Z" fill="#35181A"/>
<path d="M297.692 110.415C297.692 110.415 303.755 101.631 315.263 98.0414C326.771 94.4534 336.421 98.0414 336.421 98.0414L338.279 97.9173C338.279 97.9173 327.513 92.748 315.387 96.4467C303.26 100.145 294.847 109.673 294.847 109.673L297.692 110.415Z" fill="#35181A"/>
<path d="M377.689 127.12C377.689 127.12 384.103 128.357 387.917 135.287C391.733 142.216 387.795 149.251 387.795 149.251L387.155 148.403C387.155 148.403 390.224 142.432 386.412 135.905C382.6 129.379 377.689 129.719 377.689 129.719V127.12Z" fill="#35181A"/>
<path d="M288.133 160.755C288.133 160.755 288.903 158.999 294.392 159.108C299.884 159.217 303.177 162.292 303.177 162.292C303.177 162.292 300.652 157.571 295.656 156.912C290.66 156.252 288.244 159.987 288.133 160.755Z" fill="#35181A"/>
<path d="M306.968 127.639C306.968 127.639 306.107 137.143 311.675 144.815C317.243 152.487 333.7 152.487 333.7 152.487L334.36 153.963C334.36 153.963 318.109 154.095 311.551 148.279C304.993 142.464 304.251 132.737 305.488 127.639H306.968Z" fill="#35181A"/>
<path d="M318.013 161.361C318.013 161.361 318.901 159.333 325.243 159.46C331.584 159.587 335.388 163.139 335.388 163.139C335.388 163.139 332.472 157.684 326.701 156.923C320.931 156.163 318.14 160.475 318.013 161.361Z" fill="#35181A"/>
<path d="M303.177 186.328C303.177 186.328 304.013 187.164 307.168 188.091C310.324 189.02 312.551 188.091 312.551 188.091C312.551 188.091 311.599 186.328 309.152 185.957C306.704 185.585 303.177 186.328 303.177 186.328Z" fill="#A13136"/>
<path d="M303.177 162.292C303.177 162.292 304.931 164.148 305.581 168.973C306.231 173.8 305.581 177.605 305.581 177.605C305.581 177.605 303.373 164.984 303.177 162.292Z" fill="#C64645"/>
<path d="M288.829 167.675C288.829 167.675 291.521 168.835 294.908 169.207C298.296 169.577 302.472 168.511 302.472 168.511C302.472 168.511 300.917 164.332 297.321 163.36C291.66 161.828 288.829 167.675 288.829 167.675Z" fill="#C64645"/>
<path d="M318.013 168.359C318.013 168.359 318.573 164.076 324.048 163.139C329.524 162.2 336.02 167.953 336.02 167.953C336.02 167.953 325.252 173.091 318.013 168.359Z" fill="#C64645"/>
<path d="M295.805 169.161C292.155 169.1 288.829 167.675 288.829 167.675L288.133 168.139C287.68 168.441 286.664 168.572 286.664 168.572C287.645 169 288.663 168.975 289.284 168.899C290.548 169.621 292.785 170.605 295.651 170.644C300.197 170.707 302.472 169.129 302.472 169.129V168.509C302.472 168.509 299.456 169.221 295.805 169.161Z" fill="#35181A"/>
<path d="M336.02 167.953C336.02 167.953 331.613 169.293 327.051 169.417C322.485 169.543 318.268 168.2 318.268 168.2L317.419 168.729C316.865 169.075 315.601 169.265 315.601 169.265C316.847 169.669 318.116 169.591 318.889 169.476C320.5 170.18 323.339 171.111 326.921 171.003C332.607 170.833 334.36 169.483 335.595 168.672C335.769 168.557 336.02 167.953 336.02 167.953Z" fill="#35181A"/>
<path d="M303.177 194.743C303.177 194.743 304.116 195.175 307.864 195.917C311.612 196.66 320.527 194.743 320.527 194.743C320.527 194.743 313.948 193.629 311.852 193.752C309.756 193.876 308.333 194.916 308.333 194.916C308.333 194.916 306.416 193.381 305.24 193.381C304.064 193.381 301.899 194.061 301.899 194.061L303.177 194.743Z" fill="#A13136"/>
<path d="M304.524 198.711C304.524 198.711 307.076 200.443 310.788 200.567C314.5 200.691 318.521 199.144 318.521 199.144C318.521 199.144 316.287 202.351 311.523 202.847C306.759 203.341 304.524 198.711 304.524 198.711Z" fill="#C64645"/>
<path d="M258.953 436.236L274.931 402.035C274.931 402.035 285.555 413.232 318.013 414.365C350.473 415.5 394.24 399.033 394.24 399.033C394.24 399.033 405.451 427.969 405.451 438.737C405.451 449.507 341.405 492.015 341.405 492.015L303.432 489.18L258.953 436.236Z" fill="#772F36"/>
<path d="M257.135 492.015C257.135 492.015 246.643 496.097 243.048 497.772C243.048 497.772 227.373 499.377 221.081 501.233C214.788 503.088 213.2 511.524 211.657 520.635C210.113 529.744 198.376 541.967 194.735 548.305C191.093 554.646 192.832 562.184 193.335 563.744C193.837 565.305 191.763 570.624 194.373 573.917C196.985 577.209 198.505 575.514 199.965 574.697C201.425 573.884 201.869 570.984 201.869 570.984C201.869 570.984 205.921 570.195 207.437 569.019C208.952 567.841 207.397 567.825 211.143 566.619C214.888 565.412 216.816 564.447 218.905 562.912C220.995 561.377 232.815 540.861 240.347 534.3C247.88 527.739 261.441 525.437 261.441 525.437L257.135 492.015Z" fill="#DD5C55"/>
<path d="M462.503 528.853C436.913 535.305 381.343 539.843 331.537 542.792C280.225 545.833 235.037 547.183 235.037 547.183L227.433 523.047L220.688 501.649L369.837 472.079C369.837 472.079 365.777 441.199 398.269 424.563C398.269 424.563 494.996 425.329 518.429 452.532C541.852 479.736 516.539 515.257 462.503 528.853Z" fill="#772F36"/>
<path d="M316.9 520.368C316.9 520.368 327.392 524.452 330.987 526.127C330.987 526.127 346.66 527.732 352.953 529.587C359.247 531.443 360.833 539.877 362.377 548.988C363.92 558.097 375.657 570.32 379.3 576.66C382.94 583.002 381.201 590.537 380.699 592.097C380.196 593.657 382.272 598.977 379.66 602.271C377.049 605.564 375.528 603.867 374.069 603.052C372.608 602.239 372.164 599.339 372.164 599.339C372.164 599.339 368.112 598.549 366.596 597.372C365.083 596.195 366.637 596.18 362.892 594.972C359.145 593.765 357.219 592.802 355.129 591.265C353.039 589.732 341.219 569.215 333.687 562.653C326.155 556.092 312.593 553.792 312.593 553.792L316.9 520.368Z" fill="#DD5C55"/>
<path d="M267.157 430.236C267.157 430.236 139.633 430.236 119.23 452.907C98.8255 475.579 110.161 504.483 126.597 514.119C143.035 523.753 315.333 562.295 315.333 562.295L324.403 509.584L298.983 501.649L312.593 483.424L267.157 430.236Z" fill="#772F36"/>
<path d="M266.78 435.147C266.78 435.147 293.392 468.093 307.859 477.881C307.859 477.881 278.116 474.821 266.78 435.147Z" fill="#5D2129"/>
<path d="M164.005 463.676C164.005 463.676 186.109 466.509 220.683 473.877C255.256 481.245 298.983 501.649 298.983 501.649C298.983 501.649 254.125 471.043 218.984 463.676C183.841 456.307 164.005 463.676 164.005 463.676Z" fill="#5D2129"/>
<path d="M287.319 494.212C287.319 494.212 390.148 463.524 433.223 456.515C433.223 456.515 342.143 483.891 298.983 501.649L287.319 494.212Z" fill="#5D2129"/>
<path d="M386.459 432.44C386.459 432.44 336.607 457.047 319.831 481.993C319.831 481.993 372.379 455.049 386.459 432.44Z" fill="#5D2129"/>
<path d="M123.321 433.161C117.707 435.143 111.266 433.161 110.441 432.172C109.615 431.181 115.891 425.401 115.891 420.941C115.891 420.245 115.802 419.704 115.658 419.275C116.581 420.24 117.877 421.211 119.18 421.767C122.661 423.253 130.257 424.069 132.239 425.231C134.221 426.392 128.936 431.181 123.321 433.161ZM256.12 388.249C256.12 388.249 247.653 367.649 227.799 367.464L148.961 420.949C147.441 420.161 144.776 419.065 140.661 418.3C133.56 416.979 119.523 417.143 115.891 416.483C114.138 416.164 114.041 417.039 114.79 418.195C113.633 417.715 111.789 419.007 110.366 421.107C108.129 424.411 102.514 430.564 102.514 434.011C102.514 437.456 108.625 440.923 112.257 441.088C112.257 441.088 99.8718 444.227 97.5598 448.685C95.2478 453.143 101.358 452.483 103.34 451.492C105.321 450.501 118.037 447.033 118.037 447.033C118.037 447.033 105.486 453.971 105.156 458.759C104.826 463.548 109.12 460.74 113.083 458.759C117.046 456.777 124.147 453.143 124.147 453.143C124.147 453.143 113.909 460.576 115.725 463.877C117.542 467.181 125.964 459.639 132.734 456.557C139.505 453.473 144.623 453.021 150.336 450.801C158.331 447.695 162.548 441.005 162.549 441.005C176.637 435.761 237.004 412.289 256.12 388.249Z" fill="#DD5C55"/>
<path d="M515.783 320.471C515.783 320.471 522.963 342.393 518.051 358.732C513.137 375.069 494.34 378.753 494.34 378.753L497.363 374.975C497.363 374.975 515.877 371.859 516.916 346.448C517.84 323.873 515.783 320.471 515.783 320.471Z" fill="#35181A"/>
<path d="M133.298 424.969C133.298 424.969 139.532 428.512 146.475 428.512C153.417 428.512 145.059 431.629 139.887 430.071C134.715 428.512 133.298 424.969 133.298 424.969Z" fill="#C64645"/>
<path d="M155.172 437.3C155.172 437.3 150.921 437.441 144.971 440.559C139.02 443.676 135.903 451.611 134.344 450.336C132.784 449.061 137.036 436.875 155.172 437.3Z" fill="#C64645"/>
<path d="M114.114 440.873C114.114 440.873 127.139 451.407 128.697 451.548C130.255 451.691 123.323 441.441 114.114 440.873Z" fill="#C64645"/>
<path d="M274.323 327.851C274.323 327.851 280.751 324.484 300.34 324.484C319.931 324.484 352.537 332.136 352.537 332.136C352.537 332.136 292.381 332.443 274.323 327.851Z" fill="#FAB8A6"/>
<path d="M392.697 392.648L394.255 399.377V399.392L366.485 407.963C366.485 407.963 380.613 373.821 380.341 347.695C380.071 321.569 388.597 289.057 388.597 289.057L399.997 321.527C396.383 332.969 392.697 344.096 389.655 353.081C385.241 366.137 386.327 380.421 392.697 392.648Z" fill="#FAB8A6"/>
<path d="M513.733 453.711C508.584 450.719 504.284 445.029 506.447 444.259C508.611 443.487 516.225 444.099 519.923 443.287C521.305 442.981 522.76 442.268 523.847 441.492C523.625 441.887 523.437 442.403 523.308 443.085C522.479 447.468 527.569 454.313 526.573 455.135C525.579 455.953 518.881 456.701 513.733 453.711ZM536.157 473.755C534.715 468.944 523.131 463.557 523.131 463.557C526.731 464.072 533.379 461.801 534.02 458.416C534.66 455.029 530.289 447.937 528.705 444.276C527.697 441.948 526.127 440.336 524.901 440.592C525.852 439.596 525.917 438.719 524.137 438.705C520.445 438.679 506.685 435.905 499.461 435.881C496.549 435.872 494.304 436.152 492.648 436.488L439.835 362.223C436.915 344.072 432.885 298.128 428.123 277.773C421.888 251.135 408.004 243.729 408.004 243.729C408.004 243.729 390.788 253.969 387.917 273.805C385.047 293.643 410.329 382.396 410.329 382.396C419.307 407.645 466.589 447.996 473.172 455.535C473.172 455.535 476.632 461.476 483.909 466.016C489.109 469.259 494.053 470.657 500.133 474.945C506.211 479.235 513.083 488.211 515.483 485.304C517.881 482.397 509.204 473.191 509.204 473.191C509.204 473.191 515.505 478.081 519.031 480.765C522.556 483.449 526.252 487.007 526.819 482.24C527.385 477.472 516.345 468.323 516.345 468.323C516.345 468.323 528.193 474.096 529.956 475.439C531.719 476.781 537.599 478.567 536.157 473.755Z" fill="#DD5C55"/>
<path d="M504.777 444.972C504.777 444.972 498.544 448.515 491.6 448.515C484.657 448.515 493.017 451.632 498.189 450.073C503.36 448.515 504.777 444.972 504.777 444.972Z" fill="#C64645"/>
<path d="M478.397 454.296C478.397 454.296 482.647 454.437 488.599 457.555C494.549 460.672 497.667 468.607 499.225 467.332C500.784 466.056 496.533 453.871 478.397 454.296Z" fill="#C64645"/>
<path d="M517.86 461.503C517.86 461.503 504.836 472.035 503.277 472.177C501.719 472.319 508.651 462.069 517.86 461.503Z" fill="#C64645"/>
<path d="M314.883 233.776C314.883 233.776 308.693 245.56 318.521 248.775C328.351 251.988 345.185 240.815 353.756 232.551C353.756 232.551 342.431 250.764 324.065 253.671C305.699 256.58 309.959 237.783 314.883 233.776Z" fill="#FAB8A6"/>
</g>
<defs>
<clipPath id="clip0_1_3">
<rect width="666.667" height="666.667" fill="white"/>
</clipPath>
</defs>
</svg>
